HIERARCHY
ROOT root
{
	OFFSET	0	13.1	24.9
	CHANNELS 6  Xposition Yposition Zposition Xrotation Yrotation Zrotation
	JOINT spine_1
	{
		OFFSET	0	9.99999	0
		CHANNELS 3  Xrotation Yrotation Zrotation
		JOINT spine_2
		{
			OFFSET	0	112	-10
			CHANNELS 3  Xrotation Yrotation Zrotation
			JOINT spine_3
			{
				OFFSET	0	206.5	19.3
				CHANNELS 3  Xrotation Yrotation Zrotation
				JOINT spine_4
				{
					OFFSET	0	110.4	14.6
					CHANNELS 3  Xrotation Yrotation Zrotation
					JOINT neck_1
					{
						OFFSET	0	71.8	-50.3
						CHANNELS 3  Xrotation Yrotation Zrotation
						JOINT neck_2
						{
							OFFSET	0	86.2	-25.8
							CHANNELS 3  Xrotation Yrotation Zrotation
							JOINT head_ee
							{
								OFFSET	0	179.8	-8.7
								CHANNELS 3  Xrotation Yrotation Zrotation
								End Site
								{
									OFFSET	1	0	0
								}
							}
						}
					}
					JOINT left_clavicle
					{
						OFFSET	-43.2	22.4	-70.8
						CHANNELS 3  Xrotation Yrotation Zrotation
						JOINT left_shoulder
						{
							OFFSET	-93.9	-5.79999	48.7
							CHANNELS 3  Xrotation Yrotation Zrotation
							JOINT left_elbow
							{
								OFFSET	-291.4	-30.8	15.2
								CHANNELS 3  Xrotation Yrotation Zrotation
								JOINT left_lowarm_twist
								{
									OFFSET	-110.7	-3.89999	13.6
									CHANNELS 3  Xrotation Yrotation Zrotation
									JOINT left_hand
									{
										OFFSET	-110.7	-3.89999	13.6
										CHANNELS 3  Xrotation Yrotation Zrotation
										JOINT left_ee
										{
											OFFSET	-80.8	-5.10001	12.1
											CHANNELS 3  Xrotation Yrotation Zrotation
											End Site
											{
												OFFSET	1	0	0
											}
										}
									}
								}
							}
						}
					}
					JOINT right_clavicle
					{
						OFFSET	43.2	22.4	-70.8
						CHANNELS 3  Xrotation Yrotation Zrotation
						JOINT right_shoulder
						{
							OFFSET	93.9	-5.79999	48.7
							CHANNELS 3  Xrotation Yrotation Zrotation
							JOINT right_elbow
							{
								OFFSET	291.4	-30.8	15.2
								CHANNELS 3  Xrotation Yrotation Zrotation
								JOINT right_lowarm_twist
								{
									OFFSET	110.7	-3.89999	13.6
									CHANNELS 3  Xrotation Yrotation Zrotation
									JOINT right_hand
									{
										OFFSET	110.7	-3.89999	13.6
										CHANNELS 3  Xrotation Yrotation Zrotation
										JOINT right_ee
										{
											OFFSET	80.8	-5.10001	12.1
											CHANNELS 3  Xrotation Yrotation Zrotation
											End Site
											{
												OFFSET	1	0	0
											}
										}
									}
								}
							}
						}
					}
				}
			}
		}
	}
	JOINT left_hip
	{
		OFFSET	-82.8	-127.5	0.300001
		CHANNELS 3  Xrotation Yrotation Zrotation
		JOINT left_knee
		{
			OFFSET	-28.2	-396.7	2.2
			CHANNELS 3  Xrotation Yrotation Zrotation
			JOINT left_ankle
			{
				OFFSET	-11.7	-411.3	35.4
				CHANNELS 3  Xrotation Yrotation Zrotation
				JOINT left_toes
				{
					OFFSET	0	-60	-88.6
					CHANNELS 3  Xrotation Yrotation Zrotation
					JOINT left_foot_ee
					{
						OFFSET	-22.5	-16.5	-42.2
						CHANNELS 3  Xrotation Yrotation Zrotation
						End Site
						{
							OFFSET	1	0	0
						}
					}
				}
			}
		}
	}
	JOINT right_hip
	{
		OFFSET	82.8	-127.5	0.300001
		CHANNELS 3  Xrotation Yrotation Zrotation
		JOINT right_knee
		{
			OFFSET	28.2	-396.7	2.2
			CHANNELS 3  Xrotation Yrotation Zrotation
			JOINT right_ankle
			{
				OFFSET	11.7	-411.3	35.4
				CHANNELS 3  Xrotation Yrotation Zrotation
				JOINT right_toes
				{
					OFFSET	0	-60	-88.6
					CHANNELS 3  Xrotation Yrotation Zrotation
					JOINT right_foot_ee
					{
						OFFSET	22.5	-16.5	-42.2
						CHANNELS 3  Xrotation Yrotation Zrotation
						End Site
						{
							OFFSET	1	0	0
						}
					}
				}
			}
		}
	}
}
MOTION
Frames: 9
Frame Time: 0.02
3327.06 671.528 -1564.55 -45.3891 77.314 47.8557 1.93223 0.304 0.36039 1.93226 0.280452 0.379004 1.93414 0.208921 0.422669 1.934 0.273051 0.38437 -6.87108 17.3286 -0.733466 -6.85316 32.7581 2.82278 -0.0 0.0 -0.0 6.49278 22.9386 11.7629 -18.143 14.3238 60.131 0.265676 -7.49767 0.0174079 -74.5123 -7.12256 5.31991 4.76413 31.1766 41.1625 -0.0 0.0 -0.0 12.7998 12.8539 -26.0875 2.64899 49.2113 -58.6293 0.662111 18.1591 -0.105811 -70.3999 6.59707 -5.30567 -11.6045 -32.7371 59.7713 0.0 0.0 0.0 35.6222 -9.74022 -11.4707 -8.16579 0.249089 1.22739 -3.03021 0.659275 0.450679 -37.4098 0.0 0.0 -0.0 0.0 -0.0 2.6789 -50.8907 8.5351 -11.3248 -0.298146 -1.70959 36.7984 33.8487 5.88282 -5.10123 0.0 0.0 0.0 0.0 0.0 
3305.0 665.865 -1557.02 -47.002 76.6777 49.8528 2.0256 0.189171 0.299695 2.02563 0.169717 0.311125 2.02657 0.112493 0.336077 2.02645 0.164158 0.314094 -3.87149 16.2604 -1.78507 -3.48866 31.1182 0.662391 -0.0 0.0 -0.0 6.07837 24.0568 11.0907 -18.9972 12.69 61.6631 0.439829 -12.2916 0.0473601 -74.8459 -7.16519 5.31939 4.89644 31.0014 42.1728 -0.0 0.0 -0.0 12.6699 13.0215 -25.7854 2.36268 48.5518 -59.108 0.661049 18.1319 -0.105481 -69.0747 6.428 -5.29299 -11.483 -32.6765 58.39 0.0 0.0 0.0 36.299 -9.97134 -11.6388 -9.55948 0.27401 1.43979 -4.90814 1.45584 0.731431 -36.5751 0.0 0.0 -0.0 0.0 -0.0 2.52876 -48.9281 8.97085 -12.4477 -0.309168 -1.88152 36.619 33.5423 5.83798 -2.9374 0.0 0.0 0.0 0.0 0.0 
3280.95 661.539 -1544.95 -48.6556 77.0982 51.7892 2.04297 -0.049148 0.249882 2.043 -0.064949 0.246248 2.04271 -0.107087 0.231061 2.04265 -0.0692511 0.245073 -2.43339 13.9425 -1.95254 -2.02804 26.8113 -0.195522 -0.0 0.0 -0.0 5.88766 24.9062 10.7674 -20.5401 11.4752 64.0351 0.65695 -18.0267 0.104209 -75.7904 -7.28582 5.31659 4.84048 31.3805 41.7402 -0.0 0.0 -0.0 11.6897 13.4604 -23.5362 2.51309 47.2525 -61.3702 0.693731 18.9655 -0.115878 -67.2756 6.19893 -5.2695 -11.2683 -32.4396 56.4292 0.0 0.0 0.0 36.9441 -10.5677 -10.7239 -14.558 0.320759 2.20508 -2.83235 3.64514 0.418629 -34.866 0.0 0.0 -0.0 0.0 -0.0 2.22176 -45.4033 9.95747 -15.7199 -0.322051 -2.38333 35.2593 34.1357 5.73346 1.16335 -0.0 -0.0 0.0 0.0 0.0 
3260.3 670.354 -1532.37 -47.3116 76.8932 50.1841 1.95984 -0.19409 0.136979 1.95982 -0.202413 0.124351 1.95938 -0.221195 0.0866438 1.95943 -0.204735 0.12049 -1.78007 14.5612 0.333461 -1.39258 26.0502 2.15945 -0.0 0.0 -0.0 6.15592 25.1732 11.1152 -20.479 10.8202 65.6015 0.842573 -22.6548 0.168784 -75.7709 -7.28334 5.31667 4.81038 31.2613 41.5123 -0.0 0.0 -0.0 12.1652 12.8895 -24.6303 -1.12655 46.5106 -59.6156 0.642494 17.655 -0.09978 -65.1694 5.93174 -5.23281 -10.8419 -31.9075 53.0007 0.0 0.0 0.0 36.2824 -7.64962 -9.27303 -16.562 0.320729 2.51253 -2.40319 6.35807 0.353843 -34.5232 0.0 0.0 -0.0 0.0 -0.0 3.19402 -42.4066 11.887 -17.68 -0.316039 -2.68401 26.4693 30.5679 4.37954 3.38536 -0.0 -0.0 0.0 0.0 0.0 
3232.72 671.313 -1520.21 -48.2617 77.6907 50.5994 1.89998 -0.454177 0.103391 1.89986 -0.459835 0.0742806 1.89926 -0.465717 -0.00859636 1.89956 -0.46123 0.0650644 0.226038 13.874 0.315455 0.689813 24.4762 1.68464 -0.0 0.0 -0.0 6.17028 24.9681 11.1506 -21.5392 10.6896 67.083 0.98702 -26.0554 0.22838 -76.1993 -7.33801 5.31475 4.89043 30.1678 42.1267 -0.0 0.0 -0.0 11.7365 12.1864 -23.6673 -3.31292 45.8128 -59.9466 0.647223 17.7767 -0.101219 -64.3573 5.82908 -5.21603 -10.7798 -32.0256 52.1249 0.0 0.0 0.0 34.6539 -9.89122 -7.19141 -18.5207 0.31031 2.81286 1.15198 8.90401 -0.168118 -35.289 0.0 0.0 -0.0 0.0 -0.0 2.69402 -29.8087 11.4178 -23.3065 -0.241741 -3.54381 25.6212 26.6154 4.06235 5.25579 -0.0 -0.0 0.0 0.0 0.0 
3208.9 678.391 -1496.62 -46.9177 77.9059 46.5228 1.87998 -0.279816 0.319847 1.87999 -0.299602 0.301393 1.87839 -0.348472 0.24324 1.87844 -0.305684 0.295222 -1.13505 14.2247 2.49154 -0.797004 23.6069 4.29619 -0.0 0.0 -0.0 6.75507 25.1513 11.939 -21.7133 11.5964 68.8166 1.23629 -31.4829 0.348482 -78.1778 -7.59023 5.30057 4.39705 30.2102 38.4268 -0.0 0.0 -0.0 11.0526 8.66058 -22.1533 -4.59985 44.9207 -60.1888 0.667426 18.2952 -0.107474 -63.8732 5.768 -5.20534 -10.3625 -31.3868 49.3512 0.0 0.0 0.0 33.2275 -3.77465 -2.77092 -19.992 0.295735 3.03813 10.6079 11.772 -1.50816 -36.3782 0.0 0.0 -0.0 0.0 -0.0 2.35844 -5.48992 12.6553 -35.7009 0.216154 -5.3871 18.2086 -6.1641 2.50669 18.5193 -0.0 -0.0 0.0 0.0 0.0 
3193.02 686.981 -1489.34 -38.9985 76.5019 37.797 1.71945 0.0128207 0.393562 1.71953 -0.0122485 0.39358 1.71945 -0.0831863 0.384884 1.71924 -0.0213576 0.393191 -3.64233 14.0174 3.79646 -3.44598 22.7089 6.04916 -0.0 0.0 -0.0 6.7968 25.4858 11.9639 -20.8812 10.7794 69.8713 1.46867 -36.0349 0.477716 -79.3166 -7.73507 5.28842 4.40756 29.5972 38.4729 -0.0 0.0 -0.0 11.1212 8.09355 -22.3006 -7.04305 44.7201 -60.3047 0.690408 18.8811 -0.1148 -62.9383 5.65027 -5.18322 -9.80093 -31.0792 44.9538 0.0 0.0 0.0 31.3925 -2.59252 -1.59046 -18.6265 0.309454 2.82908 10.5863 15.6597 -1.51572 -39.5446 0.0 0.0 -0.0 0.0 -0.0 2.03621 9.69849 10.363 -40.2574 0.483224 -6.03428 6.99657 -20.2295 1.0274 23.2855 -0.0 -0.0 0.0 0.0 0.0 
3182.57 683.151 -1487.53 -38.2257 75.4978 36.7847 1.90105 0.217549 0.415974 1.90112 0.190639 0.428974 1.90257 0.111426 0.456011 1.90233 0.182046 0.432691 -2.96793 14.6508 4.71701 -2.71916 23.0147 6.97966 -0.0 0.0 -0.0 6.66504 23.9485 11.9239 -19.2621 10.6205 69.794 1.62568 -38.842 0.573198 -79.2493 -7.72652 5.28922 4.21537 29.1662 37.0557 -0.0 0.0 -0.0 11.2063 8.10381 -22.4888 -7.72521 43.3735 -60.7781 0.652003 17.8997 -0.102683 -61.6087 5.48348 -5.14844 -9.24483 -30.6139 41.2087 0.0 0.0 0.0 30.3681 2.63231 -1.13312 -17.6293 0.316325 2.67622 16.7394 18.3881 -2.36183 -38.2344 0.0 0.0 -0.0 0.0 -0.0 3.43196 16.7105 8.44781 -42.6783 0.645894 -6.3691 -2.30194 -25.9281 -0.35492 32.2698 -0.0 -0.0 0.0 0.0 0.0 
3167.68 690.315 -1477.43 -30.0486 73.4124 28.6754 2.03045 0.304848 0.31251 2.03046 0.284344 0.331274 2.03213 0.221845 0.376004 2.03204 0.278443 0.33625 -4.70823 15.0599 5.78099 -4.51831 23.3526 8.41335 -0.0 0.0 -0.0 7.1559 21.7014 12.8406 -13.3945 11.7276 69.8253 1.74747 -40.8774 0.651266 -79.6405 -7.77621 5.28444 3.94318 29.8983 35.2022 -0.0 0.0 -0.0 11.3316 7.4909 -22.7578 -8.8619 42.2129 -60.8712 0.602264 16.6123 -0.0879275 -59.7331 5.24958 -5.09279 -8.79848 -30.3453 38.2325 0.0 0.0 0.0 27.5306 6.26089 -0.927102 -16.9737 0.319391 2.57569 19.1792 21.5744 -2.71318 -39.1116 0.0 0.0 -0.0 0.0 -0.0 5.66526 23.7174 6.54832 -46.4809 0.929678 -6.88057 -12.699 -29.0802 -2.02604 31.6678 -0.0 -0.0 0.0 0.0 0.0 
